# xmcd
#
# Track frame offsets: 
#        150
#        14990
#        32558
#        50009
#        66985
#        82836
#        106327
#        124409
#        143357
#        159536
#
# Disc length: 2430 seconds
#
# Revision: 0
# Processed by: cddbd v1.5.2PL0 Copyright (c) Steve Scherf et al.
# Submitted via: ExactAudioCopyFreeDBPlugin 1.0
#
DISCID=85097c0a
DTITLE=Daisy Dillman Band - Radio
DYEAR=2015
DGENRE=Country
TTITLE0=Eye Of A Hurricane
TTITLE1=Radio
TTITLE2=Any Other Day
TTITLE3=Painted Ponies
TTITLE4=Leaf In The Wind
TTITLE5=Nothbound Train
TTITLE6=Ship Of Fools
TTITLE7=Jeez Louise
TTITLE8=Long Goodbyes
TTITLE9=The Girl In 304
EXTD=
EXTT0=
EXTT1=
EXTT2=
EXTT3=
EXTT4=
EXTT5=
EXTT6=
EXTT7=
EXTT8=
EXTT9=
PLAYORDER=
